# xmcd CD database file
#
# Track frame offsets:
#	183
#	46228
#	70235
#	102765
#	135463
#	164703
#
# Disc length: 2696 seconds
#
# Revision: 1
# Processed by: cddbd v1.5.1PL2 Copyright (c) Steve Scherf et al.
# Submitted via: CDex 1.51
#
DISCID=4d0a8606
DTITLE=Gijs Hendriks and Beaver Harris Quartet - Sound Compound
DYEAR=1988
DGENRE=Jazz
TTITLE0=In A Friendly Way
TTITLE1=Brasilian Song
TTITLE2=Groovin'on
TTITLE3=Tribute To Michael
TTITLE4=Esbres
TTITLE5=Deeboojah
EXTD=YEAR: 1988
EXTT0=
EXTT1=
EXTT2=
EXTT3=
EXTT4=
EXTT5=
PLAYORDER=
